<mxfile host="app.diagrams.net" modified="2024-02-25T14:21:43.171Z" agent="Mozilla/5.0 (Windows NT 10.0; Win64; x64) AppleWebKit/537.36 (KHTML, like Gecko) Chrome/121.0.0.0 Safari/537.36" version="23.1.6" etag="A_XNM7f9kuJj1bl1nYYR" type="github">
  <diagram name="Page-1" id="e9u2JfE2w8Q79k8A5qS_">
    <mxGraphModel>
      <root>
        <mxCell id="0" />
        <mxCell id="1" parent="0" />
      </root>
    </mxGraphModel>
  </diagram>
</mxfile>
